# Exported by SolidWorks
g 
v 9.99999978 36.35087609 14.38888814
v 9.99999978 0.00000000 0.00000000
v 0.00000000 36.35087609 14.38888814
v 0.00000000 0.00000000 0.00000000
v 9.99999978 36.35087609 67.14814156
v 0.00000000 36.35087609 67.14814156
v 9.99999978 26.56410262 67.14814156
v 0.00000000 26.56410262 67.14814156
v 9.99999978 26.56410262 43.61409321
v 0.00000000 26.56410262 43.61409321
v 0.00000000 24.85083789 43.48008707
v 9.99999978 24.85083789 43.48008707
v 0.00000000 23.17924425 43.08132082
v 9.99999978 23.17924425 43.08132082
v 0.00000000 21.58998512 42.42750257
v 9.99999978 21.58998512 42.42750257
v 0.00000000 20.12171224 41.53452814
v 9.99999978 20.12171224 41.53452814
v 0.00000000 18.81013624 40.42411968
v 9.99999978 18.81013624 40.42411968
v 0.00000000 17.68716611 39.12328556
v 9.99999978 17.68716611 39.12328556
v 0.00000000 16.78011194 37.66366839
v 9.99999978 16.78011194 37.66366839
v 0.00000000 16.11103490 36.08077019
v 9.99999978 16.11103490 36.08077019
v 0.00000000 15.69621265 34.41308811
v 9.99999978 15.69621265 34.41308811
v 0.00000000 15.54573234 32.70119429
v 9.99999978 15.54573234 32.70119429
v 0.00000000 15.66325687 30.98672070
v 9.99999978 15.66325687 30.98672070
v 0.00000000 16.04592428 29.31137197
v 9.99999978 16.04592428 29.31137197
v 0.00000000 16.68442972 27.71589719
v 9.99999978 16.68442972 27.71589719
v 0.00000000 17.56324247 26.23910084
v 9.99999978 17.56324247 26.23910084
v 0.00000000 18.66098493 24.91690777
v 9.99999978 18.66098493 24.91690777
v 0.00000000 19.95095611 23.78147840
v 9.99999978 19.95095611 23.78147840
v 0.00000000 21.40178159 22.86042646
v 9.99999978 21.40178159 22.86042646
v 9.99999978 0.00000000 14.38888814
v 0.00000000 0.00000000 14.38888814
v 9.99999978 25.22754669 24.37479235
v 0.00000000 25.22754669 24.37479235
v 9.99999978 23.89091067 24.70751479
v 0.00000000 23.89091067 24.70751479
v 9.99999978 22.62739837 25.25599860
v 0.00000000 22.62739837 25.25599860
v 9.99999978 21.47156745 26.00523457
v 0.00000000 21.47156745 26.00523457
v 9.99999978 20.45503817 26.93472989
v 0.00000000 20.45503817 26.93472989
v 9.99999978 19.60561238 28.01906131
v 0.00000000 19.60561238 28.01906131
v 9.99999978 18.94652657 29.22856994
v 0.00000000 18.94652657 29.22856994
v 9.99999978 18.49580929 30.53016402
v 0.00000000 18.49580929 30.53016402
v 9.99999978 18.26579124 31.88825026
v 0.00000000 18.26579124 31.88825026
v 9.99999978 18.26276258 33.26567262
v 0.00000000 18.26276258 33.26567262
v 9.99999978 18.48680340 34.62475166
v 0.00000000 18.48680340 34.62475166
v 9.99999978 18.93178932 35.92831641
v 0.00000000 18.93178932 35.92831641
v 9.99999978 19.58554611 37.14071214
v 0.00000000 19.58554611 37.14071214
v 9.99999978 20.43019235 38.22877258
v 0.00000000 20.43019235 38.22877258
v 9.99999978 21.44262567 39.16272894
v 0.00000000 21.44262567 39.16272894
v 9.99999978 22.59514853 39.91704434
v 0.00000000 22.59514853 39.91704434
v 9.99999978 23.85623567 40.47107697
v 0.00000000 23.85623567 40.47107697
v 9.99999978 25.19139461 40.80967978
v 0.00000000 25.19139461 40.80967978
v 9.99999978 26.56410262 40.92358798
v 0.00000000 26.56410262 40.92358798
v 9.99999978 26.56410262 24.90384504
v 0.00000000 26.56410262 24.90384504
f 1 2 3
f 3 2 4
f 5 1 6
f 6 1 3
f 7 5 8
f 8 5 6
f 9 7 10
f 10 7 8
f 9 10 11
f 9 11 12
f 12 11 13
f 12 13 14
f 14 13 15
f 14 15 16
f 16 15 17
f 16 17 18
f 18 17 19
f 18 19 20
f 20 19 21
f 20 21 22
f 22 21 23
f 22 23 24
f 24 23 25
f 24 25 26
f 26 25 27
f 26 27 28
f 28 27 29
f 28 29 30
f 30 29 31
f 30 31 32
f 32 31 33
f 32 33 34
f 34 33 35
f 34 35 36
f 36 35 37
f 36 37 38
f 38 37 39
f 38 39 40
f 40 39 41
f 40 41 42
f 42 41 43
f 42 43 44
f 45 44 46
f 46 44 43
f 47 48 49
f 49 48 50
f 49 50 51
f 51 50 52
f 51 52 53
f 53 52 54
f 53 54 55
f 55 54 56
f 55 56 57
f 57 56 58
f 57 58 59
f 59 58 60
f 59 60 61
f 61 60 62
f 61 62 63
f 63 62 64
f 63 64 65
f 65 64 66
f 65 66 67
f 67 66 68
f 67 68 69
f 69 68 70
f 69 70 71
f 71 70 72
f 71 72 73
f 73 72 74
f 73 74 75
f 75 74 76
f 75 76 77
f 77 76 78
f 77 78 79
f 79 78 80
f 79 80 81
f 81 80 82
f 81 82 83
f 83 82 84
f 85 83 86
f 86 83 84
f 47 85 48
f 48 85 86
f 2 45 4
f 4 45 46
f 85 1 83
f 83 1 5
f 83 5 9
f 9 5 7
f 77 79 9
f 9 79 81
f 9 81 83
f 85 47 1
f 1 47 44
f 1 44 2
f 2 44 45
f 14 16 75
f 75 16 18
f 75 18 73
f 73 18 20
f 73 20 71
f 71 20 22
f 71 22 69
f 69 22 24
f 69 24 67
f 77 9 75
f 75 9 12
f 75 12 14
f 24 26 67
f 67 26 28
f 67 28 65
f 65 28 30
f 65 30 63
f 63 30 32
f 63 32 61
f 61 32 34
f 61 34 59
f 59 34 36
f 59 36 57
f 57 36 38
f 57 38 55
f 55 38 40
f 55 40 53
f 53 40 42
f 53 42 51
f 51 42 44
f 51 44 49
f 49 44 47
f 4 46 3
f 3 46 43
f 84 6 86
f 86 6 3
f 86 3 48
f 48 3 50
f 50 3 43
f 50 43 52
f 8 6 10
f 10 6 84
f 10 84 11
f 11 84 82
f 11 82 13
f 13 82 80
f 13 80 15
f 15 80 78
f 15 78 17
f 17 78 76
f 17 76 19
f 19 76 74
f 19 74 21
f 21 74 72
f 21 72 23
f 23 72 70
f 23 70 25
f 25 70 68
f 25 68 27
f 27 68 66
f 52 43 54
f 54 43 41
f 54 41 56
f 56 41 39
f 56 39 58
f 58 39 37
f 58 37 60
f 60 37 35
f 60 35 62
f 62 35 33
f 62 33 64
f 64 33 31
f 64 31 66
f 66 31 29
f 66 29 27

