# Exported by SolidWorks
g 
v 3.00000003 16.14138111 120.82976848
v 0.00000000 16.14138111 120.82976848
v 0.00000000 13.19107600 113.63895237
v 3.00000003 13.19107600 113.63895237
v 0.00000000 10.61787084 106.30474240
v 3.00000003 10.61787084 106.30474240
v 0.00000000 8.42869841 98.84688258
v 3.00000003 8.42869841 98.84688258
v 0.00000000 6.62945770 91.28548205
v 3.00000003 6.62945770 91.28548205
v 0.00000000 5.22499578 83.64091069
v 3.00000003 5.22499578 83.64091069
v 0.00000000 4.21909709 75.93375444
v 3.00000003 4.21909709 75.93375444
v 0.00000000 3.61447199 68.18478554
v 3.00000003 3.61447199 68.18478554
v 0.00000000 3.41274915 60.41488051
v 3.00000003 3.41274915 60.41488051
v 3.00000003 3.41274915 0.00000000
v 0.00000000 3.41274915 0.00000000
v 3.00000003 17.43269153 0.00000000
v 0.00000000 17.43269153 0.00000000
f 1 2 3
f 1 3 4
f 4 3 5
f 4 5 6
f 6 5 7
f 6 7 8
f 8 7 9
f 8 9 10
f 10 9 11
f 10 11 12
f 12 11 13
f 12 13 14
f 14 13 15
f 14 15 16
f 16 15 17
f 16 17 18
f 19 18 20
f 20 18 17
f 21 19 22
f 22 19 20
f 1 21 2
f 2 21 22
f 8 10 21
f 21 10 12
f 21 12 14
f 14 16 21
f 21 16 18
f 21 18 19
f 1 4 21
f 21 4 6
f 21 6 8
f 20 17 22
f 22 17 15
f 22 15 13
f 13 11 22
f 22 11 9
f 22 9 7
f 7 5 22
f 22 5 3
f 22 3 2

